<svg width="324" height="320" viewBox="0 0 324 320" fill="none" xmlns="http://www.w3.org/2000/svg">
<path d="M200.449 91.2595C199.636 85.7384 195.165 80.0358 190.985 77.2753C190.549 76.9726 190.114 76.6987 189.678 76.4263C180.215 83.2758 162.911 94.3545 142.588 97.7219C141.021 97.9943 139.105 97.5993 137.914 98.7223C134.17 102.211 133.416 114.406 124.154 114.678C122.875 118.078 121.715 121.353 120.467 124.144C121.981 121.928 133.044 124.029 135.853 124.69C138.609 125.327 150.499 128.712 149.992 131.364C152.082 126.66 151.27 121.899 149.905 116.923C166.482 113.587 189.447 101.331 200.449 91.2595Z" fill="#FECFC4"/>
<path d="M55.466 142.437C52.5175 145.398 48.7948 147.379 44.7686 148.13C40.7425 148.88 36.5937 148.367 32.8471 146.653C29.1004 144.94 25.9241 142.105 23.7197 138.505C21.5154 134.906 20.3821 130.704 20.463 126.431C20.5441 122.159 21.8358 118.007 24.1749 114.502C26.5139 110.996 29.7953 108.295 33.604 106.738C37.4127 105.181 41.5776 104.84 45.5721 105.756C49.5667 106.673 53.2113 108.806 56.0453 111.888C57.9286 113.932 59.4077 116.345 60.398 118.987C61.3883 121.63 61.8703 124.45 61.8167 127.288C61.7629 130.125 61.1743 132.923 60.0845 135.523C58.9948 138.122 57.4254 140.472 55.466 142.437Z" fill="#FECFC4"/>
<path d="M277.672 227.345C279.762 219.791 286.73 222.096 290.563 217.545C291.259 224.494 287.601 231.471 280.981 231.804L277.672 227.345Z" fill="#FECFC4"/>
<path d="M120.115 242.299C117.473 243.908 112.538 240.571 107.139 234.199C107.233 236.397 107.83 238.541 108.88 240.45C112.538 247.608 112.364 265.264 116.429 264.025C117.561 263.66 118.897 257.653 120.087 250.768C120.704 247.442 121.518 244.159 122.526 240.939C122.022 241.208 120.621 241.947 120.115 242.299Z" fill="#6153BD"/>
<path d="M137.012 90.1681C137.545 91.7876 138.33 93.3042 139.335 94.6569C141.888 94.2635 144.727 93.4543 145.256 92.2309C145.348 92.0248 145.426 91.8118 145.489 91.5937C144.821 93.8079 140.96 92.3217 137.012 90.1681Z" fill="#6153BD"/>
<path d="M140.44 73.8774C135.301 68.2353 118.55 72.6636 107.199 81.2494C95.7903 89.8639 99.0709 97.9336 113.847 94.2332C112.977 94.5056 103.512 97.478 97.3285 104.906C88.2412 115.827 96.1379 120.013 106.323 117.829C118.486 115.22 128.938 104.785 132.479 97.564C134.106 93.3098 135.209 88.857 135.763 84.3126C131.525 80.703 134.109 77.4264 136.431 79.9145C137.679 81.2494 139.073 80.6122 137.534 76.2508C139.085 75.2457 140.946 74.9239 140.44 73.8774Z" fill="#6153BD"/>
<path d="M179.196 250.248C178.659 243.045 178.737 235.806 179.427 228.618C173.92 230.242 168.076 230.148 162.619 228.345C162.735 233.382 161.226 235.929 162.474 239.054C163.224 240.807 164.288 242.392 165.608 243.725C171.067 249.49 175.741 266.476 179.312 264.05C180.299 263.38 179.921 257.225 179.196 250.248Z" fill="#6153BD"/>
<path d="M124.587 123.173C124.325 124.581 123.917 125.955 123.367 127.269C118.635 124.811 119.739 123.204 124.587 123.173Z" fill="#6153BD"/>
<path d="M150.02 131.327C149.903 131.904 149.119 132.269 147.812 132.442C148.306 131.502 148.742 130.652 149.119 129.803C149.787 130.392 150.105 130.908 150.02 131.327Z" fill="#6153BD"/>
<path d="M163.026 177.867L159.977 186.998C159.861 183.449 159.745 179.96 159.686 176.532L163.026 177.867Z" fill="#6153BD"/>
<path d="M58.7624 242.329C50.9664 228.385 40.6214 216.508 35.734 218.476C29.1195 221.139 38.0939 242.497 43.2404 251.825C51.8917 267.478 62.3434 278.095 66.7033 275.645C73.0404 271.956 62.6879 249.349 58.7624 242.329Z" fill="#6153BD"/>
<path d="M112.364 209.477C103.771 193.945 93.348 183.449 89.0506 186.061C84.7257 188.669 88.2091 203.353 96.7735 218.883C105.338 234.414 115.789 244.881 120.085 242.299C124.412 239.692 120.928 225.008 112.364 209.477Z" fill="#6153BD"/>
<path d="M122.525 240.934C121.519 244.155 120.705 247.438 120.085 250.764C118.909 257.652 117.562 263.667 116.427 264.02C112.37 265.295 112.523 247.613 108.878 240.445C107.826 238.538 107.229 236.394 107.137 234.195" stroke="#120071" stroke-width="1.52982" stroke-linecap="round" stroke-linejoin="round"/>
<path d="M223.006 126.783C222.427 125.803 221.649 124.969 220.727 124.338C219.805 123.708 218.762 123.297 217.67 123.135C216.579 122.973 215.468 123.063 214.414 123.4C213.361 123.736 212.39 124.311 211.573 125.083C211.249 123.931 210.675 122.872 209.897 121.989C209.118 121.105 208.155 120.422 207.082 119.99C206.01 119.559 204.856 119.391 203.711 119.501C202.566 119.611 201.463 119.995 200.482 120.623C199.635 121.168 198.898 121.883 198.316 122.726C197.732 123.57 197.314 124.525 197.086 125.537C195.88 124.588 194.429 124.04 192.921 123.968C191.413 123.895 189.919 124.3 188.636 125.13C187.352 125.96 186.338 127.175 185.727 128.617C185.116 130.06 184.937 131.661 185.212 133.212C184.232 132.944 183.21 132.883 182.209 133.035C181.206 133.186 180.244 133.546 179.376 134.093C178.398 134.721 177.571 135.575 176.958 136.589C176.346 137.604 175.965 138.752 175.844 139.945C175.724 141.138 175.867 142.344 176.263 143.47C176.658 144.596 177.297 145.612 178.128 146.439C177.109 146.859 176.192 147.505 175.439 148.334C174.686 149.163 174.114 150.154 173.766 151.237C173.417 152.321 173.3 153.471 173.422 154.607C173.542 155.743 173.9 156.838 174.469 157.814C175.263 159.187 176.451 160.264 177.861 160.895C179.273 161.526 180.838 161.679 182.337 161.333L222.864 135.369C223.884 134.727 225.124 130.356 223.006 126.783Z" stroke="#120071" stroke-width="1.52982" stroke-linecap="round" stroke-linejoin="round"/>
<path d="M192.257 138.825C193.215 139.768 193.832 141.027 194.006 142.39C194.179 143.753 193.899 145.137 193.21 146.308C192.521 147.48 191.467 148.368 190.227 148.823C188.984 149.278 187.63 149.272 186.393 148.807" stroke="#120071" stroke-width="1.52982" stroke-linecap="round" stroke-linejoin="round"/>
<path d="M210.32 133.488C210.158 134.715 209.64 135.86 208.832 136.767C208.024 137.673 206.967 138.297 205.809 138.553C204.649 138.808 203.441 138.683 202.351 138.194C201.263 137.706 200.345 136.877 199.723 135.823C199.459 135.367 199.255 134.878 199.113 134.367" stroke="#120071" stroke-width="1.52982" stroke-linecap="round" stroke-linejoin="round"/>
<path d="M211.565 125.083C210.784 125.852 210.136 126.756 209.648 127.755" stroke="#120071" stroke-width="1.52982" stroke-linecap="round" stroke-linejoin="round"/>
<path d="M180.769 145.928C179.868 145.976 178.978 146.148 178.121 146.441" stroke="#120071" stroke-width="1.52982" stroke-linecap="round" stroke-linejoin="round"/>
<path d="M197.081 125.539C196.89 126.528 196.86 127.542 196.988 128.542" stroke="#120071" stroke-width="1.52982" stroke-linecap="round" stroke-linejoin="round"/>
<path d="M188.084 134.62C187.213 133.976 186.239 133.5 185.207 133.213" stroke="#120071" stroke-width="1.52982" stroke-linecap="round" stroke-linejoin="round"/>
<path d="M233.341 144.316C231.187 140.609 226.741 139.948 225.967 140.555L185.409 166.553C184.249 167.281 182.656 171.686 184.858 175.41C185.432 176.383 186.201 177.215 187.113 177.844C188.026 178.475 189.06 178.887 190.142 179.054C191.225 179.22 192.328 179.137 193.377 178.811C194.424 178.484 195.392 177.922 196.21 177.162C196.674 178.833 197.662 180.294 199.013 181.312C200.364 182.329 202.001 182.846 203.666 182.78C205.33 182.713 206.926 182.068 208.199 180.945C209.472 179.824 210.349 178.288 210.692 176.585C211.89 177.544 213.338 178.103 214.846 178.188C216.354 178.274 217.851 177.88 219.142 177.06C220.432 176.24 221.454 175.032 222.076 173.594C222.697 172.155 222.887 170.555 222.624 169.002C224.232 169.427 225.93 169.282 227.452 168.591C228.973 167.898 230.232 166.697 231.03 165.177C231.827 163.656 232.118 161.902 231.857 160.188C231.597 158.476 230.799 156.903 229.59 155.715C230.619 155.307 231.551 154.667 232.318 153.841C233.083 153.015 233.667 152.023 234.025 150.935C234.382 149.847 234.507 148.69 234.388 147.546C234.27 146.402 233.912 145.299 233.341 144.316Z" stroke="#120071" stroke-width="1.52982" stroke-linecap="round" stroke-linejoin="round"/>
<path d="M209.099 167.523C208.8 166.467 208.23 165.518 207.449 164.779C206.669 164.04 205.71 163.539 204.675 163.332C203.64 163.125 202.571 163.221 201.585 163.606C200.598 163.993 199.733 164.654 199.083 165.521C198.447 166.376 198.037 167.391 197.893 168.463" stroke="#120071" stroke-width="1.52982" stroke-linecap="round" stroke-linejoin="round"/>
<path d="M221.844 153.15C220.727 152.747 219.517 152.714 218.379 153.055C217.244 153.396 216.234 154.095 215.492 155.057C214.75 156.019 214.307 157.197 214.23 158.43C214.15 159.663 214.437 160.892 215.05 161.948C215.312 162.407 215.635 162.826 216.009 163.192" stroke="#120071" stroke-width="1.52982" stroke-linecap="round" stroke-linejoin="round"/>
<path d="M229.592 155.723C228.569 156.118 227.488 156.324 226.398 156.33" stroke="#120071" stroke-width="1.52982" stroke-linecap="round" stroke-linejoin="round"/>
<path d="M197.816 174.973C197.381 175.783 196.84 176.523 196.209 177.176" stroke="#120071" stroke-width="1.52982" stroke-linecap="round" stroke-linejoin="round"/>
<path d="M222.629 169.009C221.695 168.729 220.811 168.291 220.012 167.713" stroke="#120071" stroke-width="1.52982" stroke-linecap="round" stroke-linejoin="round"/>
<path d="M210.776 173.344C210.914 174.425 210.885 175.521 210.693 176.593" stroke="#120071" stroke-width="1.52982" stroke-linecap="round" stroke-linejoin="round"/>
<path d="M185.407 166.553L181.082 169.281" stroke="#120071" stroke-width="1.52982" stroke-linecap="round" stroke-linejoin="round"/>
<path d="M182.331 161.335L178.062 164.035" stroke="#120071" stroke-width="1.52982" stroke-linecap="round" stroke-linejoin="round"/>
<path d="M159.833 182.782L113.73 212.024" stroke="#120071" stroke-width="1.52982" stroke-linecap="round" stroke-linejoin="round"/>
<path d="M158.902 176.198L110.797 206.747" stroke="#120071" stroke-width="1.52982" stroke-linecap="round" stroke-linejoin="round"/>
<path d="M199.837 91.8057C210.162 90.8077 220.544 92.9481 229.732 97.9693C238.92 102.99 246.525 110.678 251.631 120.109C267.052 147.801 258.974 183.567 233.601 199.982C217.73 210.25 213.326 204.821 182.506 214" stroke="#120071" stroke-width="1.52982" stroke-linecap="round" stroke-linejoin="round"/>
<path d="M120.42 242.064C134.518 234.381 147.118 227.665 160.094 222.127" stroke="#120071" stroke-width="1.52982" stroke-linecap="round" stroke-linejoin="round"/>
<path d="M122.032 160.212C112.25 168.403 101.536 176.382 89.0234 186.028" stroke="#120071" stroke-width="1.52982" stroke-linecap="round" stroke-linejoin="round"/>
<path d="M164.071 112.585C157.987 122.144 151.161 131.163 143.662 139.553" stroke="#120071" stroke-width="1.52982" stroke-linecap="round" stroke-linejoin="round"/>
<path d="M189.649 76.4565C194.555 79.3381 199.549 85.2542 200.449 91.2595C189.445 101.331 166.482 113.587 149.905 116.923C151.27 121.899 152.082 126.662 149.992 131.364C150.499 128.715 138.783 125.373 135.853 124.69C132.993 124.022 121.968 121.949 120.467 124.144C121.715 121.353 122.877 118.076 124.154 114.678C133.416 114.406 134.155 102.193 137.914 98.7223C139.099 97.6295 140.963 97.9959 142.588 97.7219C162.898 94.2701 180.215 83.2822 189.678 76.4263L189.649 76.4565Z" stroke="#120071" stroke-width="1.52982" stroke-linecap="round" stroke-linejoin="round"/>
<path d="M122.127 129.544C130.438 129.405 138.624 131.677 145.774 136.106" stroke="#120071" stroke-width="1.52982" stroke-linecap="round" stroke-linejoin="round"/>
<path d="M145.357 91.9175C144.41 93.6474 140.752 92.2074 137.014 90.1653C137.546 91.785 138.331 93.3017 139.337 94.6541" stroke="#120071" stroke-width="1.52982" stroke-linecap="round" stroke-linejoin="round"/>
<path d="M141.512 97.8348C139.489 97.3155 140.03 96.2865 139.338 94.657C144.795 93.8143 145.741 92.7646 145.516 89.9069C145.189 85.7558 142.856 76.7112 140.44 73.8774" stroke="#120071" stroke-width="1.52982" stroke-linecap="round" stroke-linejoin="round"/>
<path d="M149.904 116.923C148.22 117.257 146.595 117.499 145.084 117.652" stroke="#120071" stroke-width="1.52982" stroke-linecap="round" stroke-linejoin="round"/>
<path d="M137.535 76.2448C139.073 80.6125 137.688 81.2497 136.432 79.9085C134.108 77.4219 131.526 80.7049 135.764 84.3065C135.211 88.8525 134.109 93.3068 132.483 97.5627C128.942 104.783 118.49 115.219 106.327 117.828C96.1357 120.012 88.239 115.825 97.3324 104.904C103.516 97.4719 112.981 94.4995 113.851 94.2319C99.0748 97.9323 95.7973 89.8673 107.203 81.2481C118.557 72.6671 135.305 68.234 140.444 73.8761C140.935 74.9147 139.028 75.281 137.535 76.2448Z" stroke="#120071" stroke-width="1.52982" stroke-linecap="round" stroke-linejoin="round"/>
<path d="M124.154 114.678C125.688 110.343 127.664 106.194 130.048 102.302C130.99 100.828 131.797 99.264 132.456 97.6311" stroke="#120071" stroke-width="1.52982" stroke-linecap="round" stroke-linejoin="round"/>
<path d="M143.705 139.505C145.718 136.408 147.531 133.173 149.134 129.824" stroke="#120071" stroke-width="1.52982" stroke-linecap="round" stroke-linejoin="round"/>
<path d="M206.777 74.9706C211.16 73.8778 214.769 75.9422 214.47 77.7008C214.403 78.0533 214.264 78.3869 214.064 78.6795C213.863 78.9723 213.607 79.2173 213.31 79.3989" stroke="#120071" stroke-width="1.52982" stroke-linecap="round" stroke-linejoin="round"/>
<path d="M206.371 72.1793C210.987 71.026 215.574 73.4536 213.6 76.0023" stroke="#120071" stroke-width="1.52982" stroke-linecap="round" stroke-linejoin="round"/>
<path d="M199.955 89.0758C202.687 85.8177 206.192 83.3695 210.117 81.9778" stroke="#120071" stroke-width="1.52982" stroke-linecap="round" stroke-linejoin="round"/>
<path d="M206.602 78.2456C210.87 77.336 213.681 79.0946 213.512 80.8245C213.303 82.9478 209.244 86.1639 205.818 84.1011" stroke="#120071" stroke-width="1.52982" stroke-linecap="round" stroke-linejoin="round"/>
<path d="M203.004 70.5705C203.062 70.5099 204.833 67.9326 204.05 67.1122C203.382 66.4145 193.743 74.6961 191.043 77.3355" stroke="#120071" stroke-width="1.52982" stroke-linecap="round" stroke-linejoin="round"/>
<path d="M208.548 71.8751C216.213 68.0235 218.271 63.3769 216.823 64.2292C211.99 66.7571 207.027 69.0053 201.958 70.964C198.034 72.5239 194.348 74.6701 191.014 77.3356" stroke="#120071" stroke-width="1.52982" stroke-linecap="round" stroke-linejoin="round"/>
<path d="M179.428 228.618C178.744 235.807 178.666 243.045 179.196 250.248C179.936 257.223 180.298 263.381 179.312 264.05C175.739 266.473 171.057 249.501 165.609 243.725C164.286 242.393 163.222 240.807 162.475 239.054C161.223 235.924 162.74 233.373 162.618 228.32" stroke="#120071" stroke-width="1.52982" stroke-linecap="round" stroke-linejoin="round"/>
<path d="M112.367 209.477C120.942 225.002 124.417 239.696 120.088 242.291C115.795 244.875 105.34 234.405 96.776 218.875C88.2117 203.346 84.7314 188.672 89.0532 186.058C93.375 183.444 103.784 193.938 112.367 209.477Z" stroke="#120071" stroke-width="1.52982" stroke-linecap="round" stroke-linejoin="round"/>
<path d="M68.3017 267.094C66.1309 252.976 53.0816 229.487 42.4867 221.005C37.0139 216.575 33.0945 217.359 33.5427 224.788C34.3933 238.885 49.4168 266.083 60.6307 274.063C66.8565 278.492 69.5335 275.108 68.3017 267.094Z" stroke="#120071" stroke-width="1.52982" stroke-linecap="round" stroke-linejoin="round"/>
<path d="M66.9919 275.486L75.6111 270.275C76.4415 269.595 77.006 268.622 77.1985 267.539C77.3911 266.456 77.1984 265.336 76.6569 264.39C80.0869 269.788 86.8174 264.214 84.1176 259.536C86.6222 263.996 94.4976 261.116 91.2596 254.35C91.9935 255.343 93.0394 256.033 94.213 256.299C95.3865 256.567 96.6124 256.392 97.6745 255.805C101.181 253.467 99.8804 248.919 97.705 241.517C93.6359 228.804 87.181 217.066 78.718 206.991C76.684 204.46 74.3554 202.202 71.7863 200.275C67.7236 197.642 63.1533 199.615 64.725 206.779C63.4323 204.528 61.9155 203.056 59.3529 203.775C58.7059 203.963 58.1094 204.305 57.6101 204.773C57.1107 205.243 56.7221 205.826 56.4748 206.479C56.2274 207.131 56.128 207.835 56.1844 208.534C56.2407 209.233 56.4512 209.909 56.7994 210.509C56.7994 210.509 53.7917 206.537 50.383 209.358C49.5365 210.047 48.9662 211.041 48.7835 212.145C48.6009 213.251 48.8189 214.387 49.3951 215.333C49.1207 214.826 48.753 214.383 48.3134 214.027C47.8737 213.67 47.371 213.408 46.8338 213.256C46.2967 213.103 45.7361 213.064 45.1843 213.139C44.6324 213.214 44.1006 213.404 43.619 213.695L35.5059 218.573" stroke="#120071" stroke-width="1.52982" stroke-linecap="round" stroke-linejoin="round"/>
<path d="M277.672 227.345C274.091 229.411 270.658 231.743 267.395 234.322C257.813 242.056 248.466 251.764 249.712 253.464C250.957 255.164 262.285 248.19 271.891 240.45C275.111 237.806 278.138 234.916 280.949 231.804" stroke="#120071" stroke-width="1.52982" stroke-linecap="round" stroke-linejoin="round"/>
<path d="M277.67 227.345C279.76 219.791 286.728 222.096 290.561 217.545C291.257 224.494 287.599 231.471 280.98 231.804L277.67 227.345Z" stroke="#120071" stroke-width="1.52982" stroke-linecap="round" stroke-linejoin="round"/>
<path d="M268.598 233.371L273.083 239.448" stroke="#120071" stroke-width="1.52982" stroke-linecap="round" stroke-linejoin="round"/>
<path d="M284.493 82.0378L280.689 90.9406H287.656L283.824 99.845" stroke="#120071" stroke-width="1.52982" stroke-linecap="round" stroke-linejoin="round"/>
<path d="M149.118 301.939L133.674 302.423" stroke="#120071" stroke-width="1.52982" stroke-linecap="round" stroke-linejoin="round"/>
<path d="M141.627 310.252L141.162 294.112" stroke="#120071" stroke-width="1.52982" stroke-linecap="round" stroke-linejoin="round"/>
<path d="M124.589 123.174C124.327 124.581 123.919 125.955 123.369 127.269C118.637 124.811 119.741 123.204 124.589 123.174Z" stroke="#120071" stroke-width="1.52982" stroke-linecap="round" stroke-linejoin="round"/>
<path d="M149.988 131.364C149.848 131.914 149.103 132.272 147.842 132.451" stroke="#120071" stroke-width="1.52982" stroke-linecap="round" stroke-linejoin="round"/>
<path d="M124.587 123.174C124.112 126.62 122.437 129.762 119.884 132C108.475 141.465 108.299 154.721 116.633 164.642" stroke="#120071" stroke-width="1.52982" stroke-linecap="round" stroke-linejoin="round"/>
<path d="M35 218.904L22.1367 226.525" stroke="#120071" stroke-width="1.52982" stroke-linecap="round" stroke-linejoin="round"/>
<path d="M66.4032 275.819L54.8555 282.858" stroke="#120071" stroke-width="1.52982" stroke-linecap="round" stroke-linejoin="round"/>
<path d="M49.2792 286.528L40.7148 291.746" stroke="#120071" stroke-width="1.52982" stroke-linecap="round" stroke-linejoin="round"/>
<path d="M16.1542 230.439L7.41602 235.627" stroke="#120071" stroke-width="1.52982" stroke-linecap="round" stroke-linejoin="round"/>
<path d="M43.2689 251.825L15.1367 269.207" stroke="#120071" stroke-width="1.52982" stroke-linecap="round" stroke-linejoin="round"/>
<path d="M9.53541 272.878L1 278.065" stroke="#120071" stroke-width="1.52982" stroke-linecap="round" stroke-linejoin="round"/>
<path d="M55.4621 142.436C52.5136 145.398 48.7909 147.379 44.7647 148.13C40.7386 148.88 36.5898 148.366 32.8432 146.653C29.0965 144.94 25.9202 142.104 23.7158 138.505C21.5115 134.905 20.3782 130.704 20.4591 126.431C20.5402 122.159 21.8319 118.007 24.171 114.502C26.51 110.996 29.7914 108.294 33.6001 106.738C37.4087 105.181 41.5737 104.839 45.5682 105.756C49.5627 106.673 53.2074 108.806 56.0414 111.887C57.9247 113.932 59.4038 116.345 60.3941 118.987C61.3844 121.63 61.8664 124.45 61.8128 127.287C61.759 130.125 61.1704 132.923 60.0805 135.522C58.9909 138.122 57.4214 140.471 55.4621 142.436Z" stroke="#120071" stroke-width="1.52982" stroke-linecap="round" stroke-linejoin="round"/>
<path d="M61.7958 128.142C68.2122 131.327 72.0096 134.354 71.4639 136.266C70.4867 139.717 56.0471 138.389 39.1805 133.292C22.314 128.194 9.41865 121.26 10.3806 117.804C10.9294 115.83 15.8092 115.406 23.0335 116.348" stroke="#120071" stroke-width="1.52982" stroke-linecap="round" stroke-linejoin="round"/>
<path d="M117.773 150.686C118.615 156.207 121.585 161.27 125.583 162.579C138.07 166.66 159.694 176.563 159.694 176.563C159.964 192.186 161.318 209.377 159.87 227.345C166.794 230.391 174.565 230.574 181.614 227.86C182.834 210.903 183.616 194.643 183.326 179.626C183.261 175.889 182.433 172.211 180.896 168.836C179.358 165.462 177.149 162.469 174.414 160.061C163.132 150.314 150.552 142.334 137.071 136.369" stroke="#120071" stroke-width="1.52982" stroke-linecap="round" stroke-linejoin="round"/>
<path d="M159.686 176.563L163.024 177.868L159.977 186.998" stroke="#120071" stroke-width="1.52982" stroke-linecap="round" stroke-linejoin="round"/>
<path d="M160.471 215.362C167.529 217.893 175.128 218.282 182.389 216.485" stroke="#120071" stroke-width="1.52982" stroke-linecap="round" stroke-linejoin="round"/>
<path d="M154.086 9.74841V14.8155" stroke="#120071" stroke-width="1.52982" stroke-linecap="round" stroke-linejoin="round"/>
<path d="M163.517 19.6072H158.668" stroke="#120071" stroke-width="1.52982" stroke-linecap="round" stroke-linejoin="round"/>
<path d="M154.086 29.4673V24.4003" stroke="#120071" stroke-width="1.52982" stroke-linecap="round" stroke-linejoin="round"/>
<path d="M144.648 19.6072H149.499" stroke="#120071" stroke-width="1.52982" stroke-linecap="round" stroke-linejoin="round"/>
<path d="M158.666 19.6072C158.064 19.6088 157.466 19.4861 156.91 19.2459C156.352 19.0057 155.845 18.6527 155.42 18.2075C154.993 17.7623 154.656 17.2334 154.426 16.6512C154.196 16.0692 154.079 15.4454 154.08 14.8157C154.082 15.4452 153.964 16.0689 153.734 16.6509C153.505 17.2329 153.167 17.7616 152.742 18.207C152.315 18.6522 151.809 19.005 151.252 19.2454C150.696 19.4856 150.098 19.6086 149.496 19.6072C150.098 19.6057 150.696 19.7287 151.252 19.9691C151.81 20.2094 152.316 20.5624 152.742 21.008C153.167 21.4534 153.505 21.9824 153.736 22.5646C153.964 23.1466 154.082 23.7706 154.08 24.4002C154.079 23.7704 154.196 23.1465 154.426 22.5641C154.655 21.9819 154.993 21.4527 155.419 21.0073C155.845 20.562 156.352 20.209 156.908 19.9686C157.466 19.7282 158.064 19.6054 158.666 19.6072Z" stroke="#120071" stroke-width="1.52982" stroke-linecap="round" stroke-linejoin="round"/>
</svg>
