<svg width="48" height="49" viewBox="0 0 48 49" fill="none" xmlns="http://www.w3.org/2000/svg">
<g clip-path="url(#clip0_500_2861)">
<path d="M10.548 19.3958C12.6247 19.3958 14.6548 20.0244 16.3815 21.2022C18.1082 22.38 19.454 24.054 20.2487 26.0126C21.0435 27.9712 21.2514 30.1264 20.8462 32.2056C20.4411 34.2849 19.4411 36.1948 17.9726 37.6938C16.5042 39.1928 14.6332 40.2137 12.5964 40.6273C10.5596 41.0409 8.44845 40.8286 6.52982 40.0173C4.6112 39.2061 2.97132 37.8322 1.81757 36.0695C0.663814 34.3068 0.048 32.2345 0.048 30.1145L0 28.5833C0 22.8977 2.21249 17.445 6.15076 13.4247C10.089 9.40434 15.4305 7.14575 21 7.14575V13.2708C19.0293 13.2653 17.0771 13.6588 15.2563 14.4284C13.4355 15.1979 11.7822 16.3284 10.392 17.7543C9.85168 18.3048 9.35324 18.8965 8.901 19.5244C9.438 19.4386 9.987 19.3927 10.545 19.3927L10.548 19.3958ZM37.548 19.3958C39.6247 19.3958 41.6548 20.0244 43.3815 21.2022C45.1082 22.38 46.454 24.054 47.2487 26.0126C48.0435 27.9712 48.2514 30.1264 47.8462 32.2056C47.4411 34.2849 46.4411 36.1948 44.9726 37.6938C43.5042 39.1928 41.6333 40.2137 39.5965 40.6273C37.5596 41.0409 35.4484 40.8286 33.5298 40.0173C31.6112 39.2061 29.9713 37.8322 28.8176 36.0695C27.6638 34.3068 27.048 32.2345 27.048 30.1145L27 28.5833C27 22.8977 29.2125 17.445 33.1508 13.4247C37.089 9.40434 42.4305 7.14575 48 7.14575V13.2708C46.0293 13.2653 44.0771 13.6588 42.2563 14.4284C40.4355 15.1979 38.7822 16.3284 37.392 17.7543C36.8517 18.3048 36.3532 18.8965 35.901 19.5244C36.438 19.4386 36.987 19.3927 37.548 19.3927V19.3958Z" fill="white"/>
</g>
<defs>
<clipPath id="clip0_500_2861">
<rect width="48" height="49" fill="white"/>
</clipPath>
</defs>
</svg>
