<svg width="31" height="30" viewBox="0 0 31 30" fill="none" xmlns="http://www.w3.org/2000/svg">
<rect x="0.311523" width="30.0183" height="30" rx="2" fill="white"/>
<g clip-path="url(#clip0_573_2614)">
<path d="M18.5339 8H12.1094C10.0184 8 8.31738 9.70001 8.31738 11.7897V18.2104C8.31738 20.3 10.0184 22 12.1094 22H18.534C20.6249 22 22.3259 20.3 22.3259 18.2104V11.7897C22.3259 9.70001 20.6249 8 18.5339 8V8ZM21.5047 18.2104C21.5047 19.8474 20.172 21.1792 18.5339 21.1792H12.1094C10.4713 21.1792 9.13862 19.8474 9.13862 18.2104V11.7897C9.13862 10.1526 10.4713 8.82074 12.1094 8.82074H18.534C20.172 8.82074 21.5047 10.1526 21.5047 11.7897V18.2104Z" fill="black"/>
<path d="M15.3216 11.1721C13.2095 11.1721 11.4912 12.8893 11.4912 15.0001C11.4912 17.1109 13.2095 18.8281 15.3216 18.8281C17.4337 18.8281 19.1519 17.1109 19.1519 15.0001C19.1519 12.8893 17.4337 11.1721 15.3216 11.1721ZM15.3216 18.0074C13.6624 18.0074 12.3125 16.6584 12.3125 15.0001C12.3125 13.342 13.6624 11.9929 15.3216 11.9929C16.9808 11.9929 18.3307 13.342 18.3307 15.0001C18.3307 16.6584 16.9808 18.0074 15.3216 18.0074Z" fill="black"/>
<path d="M19.2422 9.8125C18.618 9.8125 18.1104 10.32 18.1104 10.9436C18.1104 11.5674 18.618 12.0749 19.2422 12.0749C19.8663 12.0749 20.3741 11.5674 20.3741 10.9436C20.3741 10.3199 19.8663 9.8125 19.2422 9.8125ZM19.2422 11.254C19.071 11.254 18.9316 11.1147 18.9316 10.9436C18.9316 10.7724 19.071 10.6332 19.2422 10.6332C19.4135 10.6332 19.5529 10.7724 19.5529 10.9436C19.5529 11.1147 19.4135 11.254 19.2422 11.254Z" fill="black"/>
</g>
<defs>
<clipPath id="clip0_573_2614">
<rect width="14.0085" height="14" fill="white" transform="translate(8.31641 8)"/>
</clipPath>
</defs>
</svg>
