<svg width="31" height="30" viewBox="0 0 31 30" fill="none" xmlns="http://www.w3.org/2000/svg">
<rect x="0.640625" width="30.0163" height="30" rx="2" fill="white"/>
<g clip-path="url(#clip0_573_2628)">
<path d="M22.6521 22V21.9995H22.6556V16.865C22.6556 14.3531 22.1145 12.4182 19.1764 12.4182C17.764 12.4182 16.8161 13.1929 16.4292 13.9273H16.3883V12.6527H13.6025V21.9995H16.5033V17.3713C16.5033 16.1527 16.7344 14.9744 18.2443 14.9744C19.732 14.9744 19.7542 16.365 19.7542 17.4495V22H22.6521Z" fill="black"/>
<path d="M8.87793 12.6533H11.7822V22.0001H8.87793V12.6533Z" fill="black"/>
<path d="M10.3286 8C9.39998 8 8.64648 8.75308 8.64648 9.68117C8.64648 10.6092 9.39998 11.3781 10.3286 11.3781C11.2572 11.3781 12.0107 10.6092 12.0107 9.68117C12.0101 8.75308 11.2566 8 10.3286 8V8Z" fill="black"/>
</g>
<defs>
<clipPath id="clip0_573_2628">
<rect width="14.0076" height="14" fill="white" transform="translate(8.64648 8)"/>
</clipPath>
</defs>
</svg>
