<svg width="31" height="30" viewBox="0 0 31 30" fill="none" xmlns="http://www.w3.org/2000/svg">
<rect x="0.623047" width="30.0174" height="30" rx="2" fill="white"/>
<g clip-path="url(#clip0_573_2621)">
<path d="M22.6351 10.6589C22.1141 10.8873 21.5591 11.0386 20.9804 11.1121C21.5757 10.7569 22.0301 10.1986 22.2437 9.52576C21.6886 9.85651 21.0758 10.0901 20.4227 10.2205C19.8956 9.65963 19.1444 9.31226 18.3249 9.31226C16.735 9.31226 15.455 10.602 15.455 12.1831C15.455 12.4106 15.4743 12.6294 15.5216 12.8376C13.1341 12.7213 11.0215 11.5776 9.60227 9.83551C9.3545 10.2651 9.20917 10.7569 9.20917 11.2863C9.20917 12.2803 9.72134 13.1614 10.4848 13.6715C10.0234 13.6628 9.57075 13.5289 9.18728 13.318C9.18728 13.3268 9.18728 13.3381 9.18728 13.3495C9.18728 14.7443 10.1827 15.9028 11.4881 16.1696C11.2543 16.2335 10.9996 16.2641 10.7352 16.2641C10.5513 16.2641 10.3657 16.2536 10.1915 16.2151C10.5636 17.3518 11.6194 18.1874 12.8749 18.2145C11.8978 18.9784 10.6573 19.4386 9.31423 19.4386C9.07871 19.4386 8.85283 19.4281 8.62695 19.3993C9.89906 20.2191 11.4067 20.6873 13.0325 20.6873C18.3171 20.6873 21.2062 16.3123 21.2062 12.52C21.2062 12.3931 21.2019 12.2706 21.1957 12.149C21.7657 11.7448 22.2446 11.2399 22.6351 10.6589Z" fill="black"/>
</g>
<defs>
<clipPath id="clip0_573_2621">
<rect width="14.0081" height="14" fill="white" transform="translate(8.62695 8)"/>
</clipPath>
</defs>
</svg>
